<?xml version="1.0" encoding="UTF-8"?>
<svg id="Vrstva_2" data-name="Vrstva 2" xmlns="http://www.w3.org/2000/svg" viewBox="0 0 83.02 34.91">
  <defs>
    <style>
      .cls-1 {
        fill: #fff;
      }

      .cls-2 {
        fill: #eb585a;
      }

      .cls-3 {
        fill: #d9d9d9;
      }
    </style>
  </defs>
  <g id="Vrstva_1-2" data-name="Vrstva 1">
    <path class="cls-3" d="m0,14.94C0,6.69,5.6,0,12.52,0h34.57C54.01,0,59.61,6.69,59.61,14.94s-5.6,14.94-12.52,14.94H12.52C5.6,29.88,0,23.19,0,14.94Z"/>
    <path class="cls-3" d="m23.41,14.94c0-8.25,5.6-14.94,12.52-14.94h34.57c6.91,0,12.52,6.69,12.52,14.94s-5.6,14.94-12.52,14.94h-34.57c-6.91,0-12.52-6.69-12.52-14.94Z"/>
    <g>
      <path class="cls-1" d="m14.97,10.61c.67-1.2,1.6-2.13,2.76-2.81,1.17-.67,2.46-1.01,3.88-1.01,1.67,0,3.13.4,4.38,1.21s2.16,1.95,2.73,3.43h-2.4c-.43-.92-1.04-1.64-1.84-2.13-.8-.5-1.76-.75-2.87-.75s-2.03.25-2.88.75c-.85.5-1.52,1.21-2,2.12-.48.92-.73,1.99-.73,3.22s.24,2.28.73,3.2c.48.92,1.15,1.62,2,2.12.85.5,1.81.75,2.88.75s2.07-.25,2.87-.74c.8-.49,1.41-1.2,1.84-2.12h2.4c-.57,1.47-1.48,2.6-2.73,3.4-1.25.8-2.71,1.2-4.38,1.2-1.42,0-2.72-.33-3.88-1-1.17-.67-2.09-1.59-2.76-2.78-.67-1.19-1.01-2.53-1.01-4.02s.34-2.84,1.01-4.04Z"/>
      <path class="cls-1" d="m44.36,7l-5.79,15.33h-2.31l-5.79-15.33h2.13l4.82,13.22,4.82-13.22h2.11Z"/>
    </g>
    <ellipse class="cls-1" cx="67.58" cy="15.05" rx="13.59" ry="13.52"/>
    <path class="cls-2" d="m61.72,21.37v.91c0,.22.18.4.4.4h11.71c.22,0,.4-.18.4-.4v-.87c0-.22-.18-.4-.4-.4l-11.71-.04c-.22,0-.4.18-.4.4Z"/>
    <path class="cls-2" d="m65.43,7.89l5.07.04c.05,0,.1.04.1.1l.08,5.24c0,.05.04.1.1.1l3.2.04c.09,0,.13.11.07.17l-6.02,6.02s-.1.04-.14,0l-6.1-6.06c-.06-.06-.02-.17.07-.17h3.38c.06-.01.1-.06.1-.11v-5.26c-.01-.06.03-.1.09-.1Z"/>
  </g>
</svg>