<?xml version="1.0" encoding="UTF-8"?>
<svg id="Vrstva_2" data-name="Vrstva 2" xmlns="http://www.w3.org/2000/svg" viewBox="0 0 59.61 29.88">
  <defs>
    <style>
      .cls-1 {
        fill: #fff;
      }

      .cls-2 {
        fill: #d9d9d9;
      }

      .cls-3 {
        fill: #010101;
      }
    </style>
  </defs>
  <g id="Vrstva_1-2" data-name="Vrstva 1">
    <path class="cls-2" d="m0,14.94C0,6.69,5.6,0,12.52,0h34.57c6.91,0,12.52,6.69,12.52,14.94s-5.6,14.94-12.52,14.94H12.52C5.6,29.88,0,23.19,0,14.94Z"/>
    <ellipse class="cls-1" cx="44.71" cy="14.94" rx="11.33" ry="13.52"/>
    <path class="cls-3" d="m13.72,23.5c-2.37-.65-4.46-2.27-5.8-4.5-1.34-2.23-1.82-4.88-1.34-7.38.74-3.82,3.48-6.67,6.99-7.26.12-.02.25,0,.37.06.12.06.22.15.29.27.07.12.11.25.1.39,0,.13-.04.26-.11.37-.54.79-.96,1.89-1.21,3.16-.86,4.48,1.89,9.07,6.15,10.24,1.21.33,2.34.43,3.26.27.12-.02.25,0,.37.06.12.06.22.15.29.27.07.12.11.25.1.39,0,.13-.04.26-.11.37-2.06,3.01-5.73,4.31-9.36,3.31Z"/>
  </g>
</svg>