<?xml version="1.0" encoding="UTF-8"?>
<svg id="Vrstva_1" data-name="Vrstva 1" xmlns="http://www.w3.org/2000/svg" viewBox="0 0 299.5 144">
  <defs>
    <style>
      .cls-1 {
        fill: #fff;
      }

      .cls-2 {
        fill: #d8d9d9;
      }
    </style>
  </defs>
  <path class="cls-2" d="m0,72C0,32.24,28.16,0,62.9,0h173.71c34.74,0,62.9,32.24,62.9,72h0c0,39.76-28.16,72-62.9,72H62.9C28.16,144,0,111.76,0,72h0Z"/>
  <path class="cls-1" d="m216.12,37.14c-1.22,0-2.38-.55-3.24-1.54-.86-.98-1.34-2.32-1.34-3.71v-11.45c0-1.39.48-2.73,1.34-3.71.86-.98,2.03-1.54,3.24-1.54s2.38.55,3.24,1.54c.86.98,1.34,2.32,1.34,3.71v11.45c0,1.39-.48,2.73-1.34,3.71-.86.98-2.03,1.54-3.24,1.54Zm0,87.77c-1.22,0-2.38-.55-3.24-1.54-.86-.98-1.34-2.32-1.34-3.71v-11.45c0-1.39.48-2.73,1.34-3.71.86-.98,2.03-1.54,3.24-1.54s2.38.55,3.24,1.54c.86.98,1.34,2.32,1.34,3.71v11.45c0,1.39-.48,2.73-1.34,3.71-.86.98-2.03,1.54-3.24,1.54Zm23.57-76.59c-.91,0-1.79-.31-2.55-.88-.75-.58-1.34-1.4-1.69-2.35-.35-.96-.44-2.01-.26-3.03.18-1.02.61-1.95,1.25-2.69l7.07-8.1c.86-.96,2.02-1.5,3.23-1.49,1.21,0,2.36.56,3.21,1.54.85.98,1.33,2.3,1.34,3.68,0,1.38-.46,2.71-1.3,3.7l-7.07,8.09c-.43.49-.93.87-1.49,1.14-.56.26-1.15.4-1.75.4h0Zm-54.22,62.06c-.91,0-1.79-.31-2.55-.88-.75-.58-1.34-1.4-1.69-2.36-.35-.96-.44-2.01-.26-3.03.18-1.02.61-1.95,1.25-2.69l7.07-8.09c.42-.5.93-.89,1.49-1.17.56-.27,1.16-.41,1.77-.42.61,0,1.21.13,1.77.39.56.26,1.07.65,1.5,1.14.43.49.77,1.08,1,1.72.23.64.35,1.33.34,2.03,0,.7-.13,1.38-.37,2.02-.24.64-.58,1.22-1.02,1.7l-7.07,8.09c-.43.49-.93.88-1.49,1.14-.56.26-1.15.4-1.76.4h0Zm73.98-35.08h-10c-1.22,0-2.38-.55-3.24-1.54-.86-.98-1.34-2.32-1.34-3.71s.48-2.73,1.34-3.71c.86-.98,2.03-1.54,3.24-1.54h10c1.22,0,2.38.55,3.24,1.54.86.98,1.34,2.32,1.34,3.71s-.48,2.73-1.34,3.71c-.86.98-2.03,1.54-3.24,1.54Zm-76.67,0h-10c-1.22,0-2.38-.55-3.24-1.54-.86-.98-1.34-2.32-1.34-3.71s.48-2.73,1.34-3.71c.86-.98,2.03-1.54,3.24-1.54h10c1.22,0,2.38.55,3.24,1.54.86.98,1.34,2.32,1.34,3.71s-.48,2.73-1.34,3.71c-.86.98-2.03,1.54-3.24,1.54Zm63.98,35.08c-.6,0-1.2-.13-1.76-.4-.56-.26-1.06-.65-1.49-1.14l-7.07-8.09c-.84-.99-1.31-2.32-1.3-3.7,0-1.38.49-2.7,1.34-3.68.85-.98,2.01-1.53,3.21-1.54,1.21,0,2.36.53,3.23,1.49l7.07,8.09c.64.73,1.08,1.67,1.25,2.69.18,1.02.09,2.07-.26,3.03-.35.96-.93,1.78-1.69,2.36-.75.58-1.64.88-2.55.88h0Zm-54.22-62.06c-.6,0-1.2-.13-1.75-.4-.56-.26-1.06-.65-1.49-1.14l-7.07-8.09c-.84-.99-1.31-2.32-1.3-3.7,0-1.38.49-2.7,1.34-3.68.85-.98,2.01-1.53,3.21-1.54,1.21,0,2.37.53,3.23,1.49l7.07,8.1c.64.73,1.08,1.67,1.25,2.69.18,1.02.09,2.07-.26,3.03-.35.96-.93,1.78-1.69,2.35-.75.58-1.64.88-2.55.88h0Zm23.57,46.07c-4.2,0-8.31-1.43-11.81-4.1-3.49-2.67-6.22-6.47-7.83-10.92-1.61-4.45-2.03-9.34-1.21-14.06.82-4.72,2.84-9.05,5.82-12.46,2.97-3.4,6.76-5.72,10.88-6.66,4.12-.94,8.39-.46,12.28,1.38,3.88,1.84,7.2,4.96,9.54,8.96,2.33,4,3.58,8.7,3.58,13.52,0,6.45-2.25,12.63-6.23,17.19s-9.39,7.13-15.02,7.13h0Z"/>
  <ellipse class="cls-1" cx="72.77" cy="72" rx="56.9" ry="65.14"/>
</svg>